<svg width="20" height="37" fill="none" xmlns="http://www.w3.org/2000/svg"><g clip-path="url(#clip0)" opacity=".5"><path fill-rule="evenodd" clip-rule="evenodd" d="M17.518 36.54c.28.284.653.442 1.042.442a1.46 1.46 0 001.041-.442c.137-.14.246-.307.32-.492a1.565 1.565 0 000-1.166 1.506 1.506 0 00-.32-.492L3.928 18.21 19.597 2.59a1.52 1.52 0 00.319-.49 1.554 1.554 0 000-1.16 1.497 1.497 0 00-.32-.49 1.444 1.444 0 00-1.04-.45c-.39 0-.765.162-1.041.45L0 18.21l17.518 18.33z" fill="#000"/></g><defs><clipPath id="clip0"><path transform="matrix(-1 0 0 1 20 0)" fill="#fff" d="M0 0h20v37H0z"/></clipPath></defs></svg>