<svg width="11" height="5" fill="none" xmlns="http://www.w3.org/2000/svg"><g clip-path="url(#clip0)"><path fill-rule="evenodd" clip-rule="evenodd" d="M.14.625a.34.34 0 01-.132-.26.34.34 0 01.131-.261.463.463 0 01.146-.08.543.543 0 01.347 0 .463.463 0 01.146.08l4.81 3.918L10.233.105a.461.461 0 01.146-.08.54.54 0 01.345 0 .462.462 0 01.146.08.34.34 0 01.133.26.337.337 0 01-.133.26l-5.28 4.38L.139.624z" fill="#005377"/></g><defs><clipPath id="clip0"><path transform="rotate(90 11 0)" fill="#fff" d="M11 0h5v11h-5z"/></clipPath></defs></svg>