<svg width="20" height="37" fill="none" xmlns="http://www.w3.org/2000/svg"><g clip-path="url(#clip0)" opacity=".5"><path fill-rule="evenodd" clip-rule="evenodd" d="M2.498 36.53c-.28.284-.653.442-1.041.442-.39 0-.763-.158-1.042-.442a1.504 1.504 0 01-.32-.492 1.564 1.564 0 010-1.166c.074-.185.183-.352.32-.492L16.089 18.2.419 2.58a1.496 1.496 0 01-.318-.49A1.555 1.555 0 01.1.93C.175.744.283.578.42.44c.277-.288.65-.45 1.04-.45s.765.162 1.042.45L20.016 18.2 2.498 36.53z" fill="#000"/></g><defs><clipPath id="clip0"><path fill="#fff" d="M0 0h20v37H0z"/></clipPath></defs></svg>