<svg width="20" height="37" viewBox="0 0 20 37" fill="none" xmlns="http://www.w3.org/2000/svg">
<g opacity="0.5">
<g clip-path="url(#clip0)">
<path fill-rule="evenodd" clip-rule="evenodd" d="M2.4981 36.53C2.21891 36.8137 1.84539 36.9724 1.45658 36.9724C1.06777 36.9724 0.694187 36.8137 0.415001 36.53C0.278004 36.3903 0.169115 36.2231 0.0947621 36.0385C0.0204087 35.8538 -0.0178833 35.6554 -0.0178833 35.455C-0.0178833 35.2545 0.0204087 35.0562 0.0947621 34.8716C0.169115 34.6869 0.278004 34.5198 0.415001 34.38L16.0887 18.2L0.419775 2.57996C0.283294 2.4409 0.174842 2.27461 0.100758 2.09082C0.0266739 1.90703 -0.0115379 1.70954 -0.0115379 1.51001C-0.0115379 1.31048 0.0266739 1.11299 0.100758 0.929199C0.174842 0.745411 0.283294 0.578994 0.419775 0.439941C0.696706 0.151709 1.07114 -0.0100098 1.46135 -0.0100098C1.85157 -0.0100098 2.22594 0.151709 2.50287 0.439941L20.0163 18.2L2.4981 36.53Z" fill="black"/>
</g>
</g>
<defs>
<clipPath id="clip0">
<rect width="20" height="37" fill="white"/>
</clipPath>
</defs>
</svg>
