<svg width="20" height="37" viewBox="0 0 20 37" fill="none" xmlns="http://www.w3.org/2000/svg">
<g opacity="0.5">
<g clip-path="url(#clip0)">
<path fill-rule="evenodd" clip-rule="evenodd" d="M17.5183 36.54C17.7974 36.8238 18.171 36.9824 18.5598 36.9824C18.9486 36.9824 19.3222 36.8238 19.6014 36.54C19.7384 36.4003 19.8472 36.2331 19.9216 36.0485C19.9959 35.8638 20.0342 35.6654 20.0342 35.465C20.0342 35.2645 19.9959 35.0662 19.9216 34.8816C19.8472 34.697 19.7384 34.5298 19.6014 34.39L3.9277 18.21L19.5966 2.58997C19.7331 2.45091 19.8415 2.28462 19.9156 2.10083C19.9897 1.91704 20.0279 1.71955 20.0279 1.52002C20.0279 1.32049 19.9897 1.123 19.9156 0.939209C19.8415 0.755421 19.7331 0.589004 19.5966 0.449951C19.3197 0.161718 18.9452 0 18.555 0C18.1648 0 17.7904 0.161718 17.5135 0.449951L1.52588e-05 18.21L17.5183 36.54Z" fill="black"/>
</g>
</g>
<defs>
<clipPath id="clip0">
<rect width="20" height="37" transform="matrix(-1 0 0 1 20 0)" fill="white"/>
</clipPath>
</defs>
</svg>
