<svg width="11" height="5" viewBox="0 0 11 5" fill="none" xmlns="http://www.w3.org/2000/svg">
<g clip-path="url(#clip0)">
<path fill-rule="evenodd" clip-rule="evenodd" d="M0.139063 0.624661C0.0547161 0.554864 0.0075445 0.461483 0.0075445 0.364281C0.00754451 0.267079 0.0547161 0.173684 0.139063 0.103887C0.180618 0.0696379 0.230316 0.0424157 0.285208 0.0238274C0.3401 0.00523904 0.399096 -0.00433396 0.45868 -0.00433396C0.518264 -0.00433395 0.577223 0.00523905 0.632115 0.0238274C0.687008 0.0424157 0.736705 0.069638 0.77826 0.103887L5.58855 4.0223L10.2323 0.105081C10.2737 0.0709608 10.3231 0.0438479 10.3777 0.0253268C10.4324 0.00680577 10.4911 -0.00274717 10.5504 -0.00274717C10.6097 -0.00274716 10.6685 0.00680579 10.7231 0.0253269C10.7777 0.0438479 10.8272 0.0709608 10.8686 0.105081C10.9542 0.174314 11.0023 0.267921 11.0023 0.365475C11.0023 0.463029 10.9542 0.556622 10.8686 0.625855L5.58855 5.00422L0.139063 0.624661Z" fill="#005377"/>
</g>
<defs>
<clipPath id="clip0">
<rect x="11" width="5" height="11" transform="rotate(90 11 0)" fill="white"/>
</clipPath>
</defs>
</svg>
