<svg width="101" height="42" viewBox="0 0 101 42" fill="none" xmlns="http://www.w3.org/2000/svg">
<path d="M44.3884 0H8.16509L0 13.6636L26.4252 41.5882L52.7019 13.6636L44.3884 0Z" fill="white"/>
<path d="M53.8884 0H17.6651L9.50006 13.6636L35.9252 41.5882L62.202 13.6636L53.8884 0Z" fill="#D1D1D1"/>
<path d="M44.3872 0H17.6651L9.50006 13.6636L31.1004 36.5857L52.7008 13.6636L44.3872 0Z" fill="#343434"/>
<path d="M61.0097 29.5325L58.7074 24.5665H57.7579L55.4556 29.5325H54.2214V31.4425H54.791C55.0442 31.4425 55.1708 31.3152 55.1708 31.0605V30.2965H61.2945V31.0605C61.2945 31.3152 61.4211 31.4425 61.6743 31.4425H62.2439V29.5325H61.0097ZM56.3971 29.5325L58.2327 25.5772L60.0682 29.5325H56.3971Z" fill="white"/>
<path d="M67.7008 24.5665L63.9031 29.1107V24.9485C63.9031 24.6938 63.7765 24.5665 63.5234 24.5665H62.9537V30.2965H63.9031L67.7008 25.7523V29.9145C67.7008 30.1692 67.8274 30.2965 68.0805 30.2965H68.6502V24.5665H67.7008Z" fill="white"/>
<path d="M74.7134 29.5325H71.8652C71.0423 29.5325 70.6309 29.1187 70.6309 28.291V26.572C70.6309 25.7443 71.0423 25.3305 71.8652 25.3305H74.6185C74.8716 25.3305 74.9982 25.2032 74.9982 24.9485V24.5665H71.6753C70.3461 24.5665 69.6815 25.235 69.6815 26.572V28.291C69.6815 29.628 70.3461 30.2965 71.6753 30.2965H75.0932V29.9145C75.0932 29.6598 74.9666 29.5325 74.7134 29.5325Z" fill="white"/>
<path d="M75.5307 24.5665V24.9485C75.5307 25.2032 75.6573 25.3305 75.9104 25.3305H77.9992V30.2965H78.9486V25.3305H81.0373C81.2905 25.3305 81.417 25.2032 81.417 24.9485V24.5665H75.5307Z" fill="white"/>
<path d="M86.0231 24.5665H82.1305V30.2965H82.7002C82.9534 30.2965 83.0799 30.1692 83.0799 29.9145V27.8135H86.0231C87.0991 27.8135 87.6371 27.2723 87.6371 26.19C87.6371 25.1077 87.0991 24.5665 86.0231 24.5665ZM85.8332 27.0495H83.0799V25.3305H85.8332C86.4029 25.3305 86.6877 25.617 86.6877 26.19C86.6877 26.763 86.4029 27.0495 85.8332 27.0495Z" fill="white"/>
<path d="M92.2796 24.5665H90.3808C89.0516 24.5665 88.387 25.235 88.387 26.572V28.291C88.387 29.628 89.0516 30.2965 90.3808 30.2965H92.2796C93.6088 30.2965 94.2734 29.628 94.2734 28.291V26.572C94.2734 25.235 93.6088 24.5665 92.2796 24.5665ZM93.324 28.291C93.324 29.1187 92.9126 29.5325 92.0897 29.5325H90.5707C89.7479 29.5325 89.3364 29.1187 89.3364 28.291V26.572C89.3364 25.7443 89.7479 25.3305 90.5707 25.3305H92.0897C92.9126 25.3305 93.324 25.7443 93.324 26.572V28.291Z" fill="white"/>
<path d="M97.7724 23.9935H98.532C99.1649 23.9935 99.4814 23.6752 99.4814 23.0385V22.6565H98.9117C98.7535 22.6565 98.6744 22.7361 98.6744 22.8952V23.0385C98.6744 23.2613 98.5636 23.3727 98.3421 23.3727H97.9623C97.7408 23.3727 97.63 23.2613 97.63 23.0385V22.8952C97.63 22.7361 97.5509 22.6565 97.3927 22.6565H96.823V23.0385C96.823 23.6752 97.1395 23.9935 97.7724 23.9935ZM100.051 24.5665L96.2534 29.1107V24.9485C96.2534 24.6938 96.1268 24.5665 95.8736 24.5665H95.304V30.2965H96.2534L100.051 25.7523V29.9145C100.051 30.1692 100.178 30.2965 100.431 30.2965H101V24.5665H100.051Z" fill="white"/>
<path d="M35.366 22.1728L34.1589 19.9243H27.3411L28.9952 16.7989H32.5047L30.0235 12.0996L24.7034 22.1728H20.3892L27.8105 8.63689C28.2129 7.91738 28.7941 7.55762 29.5541 7.55762H30.4482C31.2082 7.55762 31.7894 7.91738 32.1918 8.63689L39.6131 22.1728H35.366Z" fill="white"/>
<path d="M40.2806 22.1728V18.89H41.4206C41.6739 18.89 41.8826 18.8151 42.0465 18.6652C42.2104 18.5003 42.3222 18.2305 42.3818 17.8557L43.4101 10.9528H53.8491V22.1728H50.1161V14.2581H46.1372L45.4219 18.5752C45.2132 19.8044 44.8183 20.7113 44.2371 21.2959C43.6708 21.8805 42.8587 22.1728 41.8006 22.1728H40.2806Z" fill="white"/>
<path d="M60.975 10.9528C61.8393 10.9528 62.3907 11.3201 62.6291 12.0546L64.8421 18.6202L67.0774 12.0546C67.3159 11.3201 67.8673 10.9528 68.7316 10.9528H70.2293C70.6614 10.9528 71.0191 11.0503 71.3022 11.2451C71.6003 11.44 71.8089 11.7773 71.9281 12.257L74.5211 22.1728H70.9669L69.2234 14.9776L67.0998 21.0711C66.8316 21.8056 66.2876 22.1728 65.468 22.1728H64.2386C63.404 22.1728 62.8675 21.8056 62.6291 21.0711L60.5055 14.8427L58.762 22.1728H55.1854L57.8008 12.257C57.92 11.7773 58.1212 11.44 58.4043 11.2451C58.6875 11.0503 59.0451 10.9528 59.4773 10.9528H60.975Z" fill="white"/>
<path d="M78.8354 22.1728C77.6581 22.1728 76.7788 21.8655 76.1977 21.2509C75.6165 20.6363 75.3259 19.8419 75.3259 18.8675C75.3259 17.8782 75.6165 17.0762 76.1977 16.4616C76.7788 15.8471 77.6581 15.5398 78.8354 15.5398H82.9931V17.7208H79.6848C79.1334 17.7208 78.8577 17.9831 78.8577 18.5078C78.8577 19.0324 79.1185 19.2947 79.6401 19.2947H84.0884V16.0569C84.0884 14.7828 83.4402 14.1457 82.1437 14.1457H75.9294V10.9528H82.1884C84.0512 10.9528 85.4445 11.4175 86.3685 12.3469C87.2924 13.2613 87.7544 14.5804 87.7544 16.3043V22.1728H78.8354Z" fill="white"/>
<path d="M91.4561 17.6758V15.3374H96.2174C96.7837 15.3374 97.0668 15.0676 97.0668 14.5279C97.0668 14.0333 96.7837 13.7859 96.2174 13.7859H89.6679V10.9528H96.8657C97.5363 10.9528 98.11 11.0278 98.5869 11.1777C99.0638 11.3276 99.4512 11.5374 99.7493 11.8073C100.047 12.0771 100.263 12.3919 100.398 12.7516C100.547 13.1114 100.621 13.5011 100.621 13.9209C100.621 14.4905 100.502 14.9851 100.263 15.4049C100.025 15.8096 99.6897 16.0944 99.2575 16.2593C99.7344 16.3942 100.129 16.6865 100.442 17.1362C100.77 17.5859 100.934 18.1705 100.934 18.89C100.934 19.8943 100.576 20.6963 99.861 21.2959C99.1606 21.8805 98.1324 22.1728 96.7763 22.1728H89.6679V19.3172H96.4186C96.9998 19.3172 97.2904 19.0474 97.2904 18.5078C97.2904 17.9531 96.9998 17.6758 96.4186 17.6758H91.4561Z" fill="white"/>
</svg>
