<svg width="170" height="70" viewBox="0 0 170 70" fill="none" xmlns="http://www.w3.org/2000/svg">
<path d="M74.7131 0H13.7432L0 22.9982L44.478 70L88.7062 22.9982L74.7131 0Z" fill="white"/>
<path d="M90.7043 0H29.7344L15.9911 22.9982L60.4692 70L104.697 22.9982L90.7043 0Z" fill="#D1D1D1"/>
<path d="M74.7122 0H29.7344L15.9911 22.9982L52.3482 61.5799L88.7052 22.9982L74.7122 0Z" fill="#005377"/>
<path d="M102.689 49.7082L98.8136 41.3496H97.2156L93.3404 49.7082H91.2629V52.9231H92.2218C92.6479 52.9231 92.861 52.7088 92.861 52.2801V50.9942H103.168V52.2801C103.168 52.7088 103.381 52.9231 103.807 52.9231H104.766V49.7082H102.689ZM94.9251 49.7082L98.0146 43.0508L101.104 49.7082H94.9251Z" fill="white"/>
<path d="M113.951 41.3496L107.559 48.9983V41.9926C107.559 41.5639 107.346 41.3496 106.92 41.3496H105.961V50.9942H107.559L113.951 43.3455V50.3512C113.951 50.7798 114.164 50.9942 114.59 50.9942H115.549V41.3496H113.951Z" fill="white"/>
<path d="M125.754 49.7082H120.96C119.575 49.7082 118.883 49.0117 118.883 47.6186V44.7252C118.883 43.3321 119.575 42.6356 120.96 42.6356H125.595C126.021 42.6356 126.234 42.4212 126.234 41.9926V41.3496H120.641C118.404 41.3496 117.285 42.4748 117.285 44.7252V47.6186C117.285 49.869 118.404 50.9942 120.641 50.9942H126.394V50.3512C126.394 49.9226 126.181 49.7082 125.754 49.7082Z" fill="white"/>
<path d="M127.13 41.3496V41.9926C127.13 42.4212 127.343 42.6356 127.769 42.6356H131.285V50.9942H132.883V42.6356H136.399C136.825 42.6356 137.038 42.4212 137.038 41.9926V41.3496H127.13Z" fill="white"/>
<path d="M144.791 41.3496H138.239V50.9942H139.198C139.624 50.9942 139.837 50.7798 139.837 50.3512V46.8149H144.791C146.602 46.8149 147.507 45.904 147.507 44.0822C147.507 42.2605 146.602 41.3496 144.791 41.3496ZM144.471 45.5289H139.837V42.6356H144.471C145.43 42.6356 145.909 43.1178 145.909 44.0822C145.909 45.0467 145.43 45.5289 144.471 45.5289Z" fill="white"/>
<path d="M155.321 41.3496H152.125C149.888 41.3496 148.769 42.4748 148.769 44.7252V47.6186C148.769 49.869 149.888 50.9942 152.125 50.9942H155.321C157.559 50.9942 158.677 49.869 158.677 47.6186V44.7252C158.677 42.4748 157.559 41.3496 155.321 41.3496ZM157.079 47.6186C157.079 49.0117 156.387 49.7082 155.002 49.7082H152.445C151.06 49.7082 150.368 49.0117 150.368 47.6186V44.7252C150.368 43.3321 151.06 42.6356 152.445 42.6356H155.002C156.387 42.6356 157.079 43.3321 157.079 44.7252V47.6186Z" fill="white"/>
<path d="M164.567 40.3852H165.845C166.911 40.3852 167.443 39.8494 167.443 38.7777V38.1348H166.484C166.218 38.1348 166.085 38.2687 166.085 38.5366V38.7777C166.085 39.1528 165.898 39.3403 165.526 39.3403H164.886C164.513 39.3403 164.327 39.1528 164.327 38.7777V38.5366C164.327 38.2687 164.194 38.1348 163.928 38.1348H162.969V38.7777C162.969 39.8494 163.501 40.3852 164.567 40.3852ZM168.402 41.3496L162.01 48.9983V41.9926C162.01 41.5639 161.797 41.3496 161.371 41.3496H160.412V50.9942H162.01L168.402 43.3455V50.3512C168.402 50.7798 168.615 50.9942 169.041 50.9942H170V41.3496H168.402Z" fill="white"/>
<path d="M59.5259 37.3205L57.4942 33.536H46.0187L48.8029 28.2754H54.71L50.5336 20.3656L41.579 37.3205H34.3174L46.8088 14.5373C47.486 13.3262 48.4643 12.7207 49.7435 12.7207H51.2485C52.5277 12.7207 53.506 13.3262 54.1832 14.5373L66.6746 37.3205H59.5259Z" fill="white"/>
<path d="M67.798 37.3205V31.795H69.7169C70.1433 31.795 70.4945 31.6689 70.7704 31.4166C71.0463 31.139 71.2344 30.6849 71.3347 30.0541L73.0655 18.4354H90.6362V37.3205H84.3529V23.9988H77.6557L76.4517 31.2652C76.1005 33.3341 75.4358 34.8606 74.4576 35.8446C73.5044 36.8286 72.1374 37.3205 70.3565 37.3205H67.798Z" fill="white"/>
<path d="M102.63 18.4354C104.085 18.4354 105.013 19.0536 105.414 20.2899L109.139 31.3409L112.902 20.2899C113.303 19.0536 114.231 18.4354 115.686 18.4354H118.207C118.934 18.4354 119.536 18.5994 120.013 18.9274C120.514 19.2554 120.866 19.8231 121.066 20.6305L125.431 37.3205H119.448L116.514 25.2099L112.939 35.4661C112.488 36.7024 111.572 37.3205 110.193 37.3205H108.123C106.719 37.3205 105.816 36.7024 105.414 35.4661L101.84 24.9828L98.9053 37.3205H92.8854L97.2875 20.6305C97.4881 19.8231 97.8268 19.2554 98.3033 18.9274C98.7799 18.5994 99.3819 18.4354 100.109 18.4354H102.63Z" fill="white"/>
<path d="M132.692 37.3205C130.711 37.3205 129.231 36.8033 128.253 35.7689C127.274 34.7344 126.785 33.3972 126.785 31.7572C126.785 30.092 127.274 28.7421 128.253 27.7077C129.231 26.6732 130.711 26.156 132.692 26.156H139.69V29.8271H134.122C133.194 29.8271 132.73 30.2686 132.73 31.1517C132.73 32.0347 133.169 32.4763 134.047 32.4763H141.534V27.0265C141.534 24.8819 140.443 23.8096 138.261 23.8096H127.801V18.4354H138.336C141.471 18.4354 143.817 19.2176 145.372 20.7819C146.927 22.321 147.704 24.5412 147.704 27.4428V37.3205H132.692Z" fill="white"/>
<path d="M153.935 29.7514V25.8154H161.949C162.902 25.8154 163.379 25.3612 163.379 24.4529C163.379 23.6203 162.902 23.204 161.949 23.204H150.925V18.4354H163.04C164.169 18.4354 165.135 18.5616 165.937 18.8139C166.74 19.0662 167.392 19.4194 167.894 19.8736C168.396 20.3277 168.759 20.8576 168.985 21.4631C169.236 22.0686 169.361 22.7246 169.361 23.4311C169.361 24.3899 169.161 25.2225 168.759 25.9289C168.358 26.6102 167.794 27.0895 167.066 27.3671C167.869 27.5941 168.533 28.0861 169.06 28.8431C169.612 29.6 169.888 30.584 169.888 31.795C169.888 33.4855 169.286 34.8353 168.082 35.8446C166.903 36.8286 165.172 37.3205 162.89 37.3205H150.925V32.5141H162.288C163.266 32.5141 163.755 32.06 163.755 31.1517C163.755 30.2181 163.266 29.7514 162.288 29.7514H153.935Z" fill="white"/>
</svg>
