<svg width="101" height="42" fill="none" xmlns="http://www.w3.org/2000/svg"><path d="M44.388 0H8.165L0 13.664l26.425 27.924 26.277-27.924L44.388 0z" fill="#fff"/><path d="M53.888 0H17.665L9.5 13.664l26.425 27.924 26.277-27.924L53.888 0z" fill="#D1D1D1"/><path d="M44.387 0H17.665L9.5 13.664l21.6 22.922 21.6-22.922L44.388 0z" fill="#343434"/><path d="M61.01 29.532l-2.303-4.965h-.95l-2.301 4.965H54.22v1.91h.57c.253 0 .38-.127.38-.381v-.764h6.123v.764c0 .254.127.381.38.381h.57v-1.91H61.01zm-4.613 0l1.836-3.955 1.835 3.955h-3.67zM67.7 24.567l-3.797 4.544v-4.163c0-.254-.127-.381-.38-.381h-.57v5.73h.95l3.798-4.545v4.163c0 .254.126.382.38.382h.57v-5.73h-.95zm7.013 4.965h-2.848c-.823 0-1.234-.413-1.234-1.241v-1.719c0-.828.411-1.241 1.234-1.241h2.754c.253 0 .38-.128.38-.383v-.381h-3.324c-1.329 0-1.993.668-1.993 2.005v1.719c0 1.337.664 2.006 1.993 2.006h3.418v-.383c0-.254-.126-.382-.38-.382zm.817-4.965v.381c0 .255.127.383.38.383H78v4.966h.949V25.33h2.088c.253 0 .38-.128.38-.383v-.381h-5.886zm10.493 0h-3.892v5.73h.57c.252 0 .379-.128.379-.383v-2.1h2.943c1.076 0 1.614-.542 1.614-1.624s-.538-1.623-1.614-1.623zm-.19 2.482H83.08v-1.718h2.753c.57 0 .855.286.855.859s-.285.86-.855.86zm6.447-2.482h-1.9c-1.328 0-1.993.668-1.993 2.005v1.719c0 1.337.665 2.006 1.994 2.006h1.899c1.329 0 1.993-.669 1.993-2.006v-1.719c0-1.337-.664-2.005-1.993-2.005zm1.044 3.724c0 .828-.411 1.241-1.234 1.241h-1.52c-.822 0-1.234-.413-1.234-1.241v-1.719c0-.828.412-1.241 1.235-1.241h1.519c.823 0 1.234.413 1.234 1.241v1.719zm4.448-4.297h.76c.633 0 .95-.319.95-.956v-.381h-.57c-.159 0-.238.08-.238.238v.143c0 .223-.11.335-.332.335h-.38c-.221 0-.332-.112-.332-.335v-.143c0-.159-.08-.238-.237-.238h-.57v.381c0 .637.317.956.95.956zm2.279.573l-3.798 4.544v-4.163c0-.254-.126-.381-.38-.381h-.569v5.73h.95l3.797-4.545v4.163c0 .254.127.382.38.382H101v-5.73h-.949zm-64.685-2.394l-1.207-2.249H27.34l1.654-3.125h3.51l-2.482-4.7-5.32 10.074H20.39l7.422-13.536c.402-.72.983-1.08 1.743-1.08h.894c.76 0 1.341.36 1.744 1.08l7.421 13.536h-4.247zm4.914 0V18.89h1.14a.892.892 0 00.627-.225c.163-.165.275-.434.335-.81l1.028-6.902h10.44v11.22h-3.734v-7.915h-3.979l-.715 4.317c-.209 1.23-.604 2.136-1.185 2.72-.566.585-1.378.878-2.436.878h-1.52zm20.695-11.22c.864 0 1.416.367 1.654 1.102l2.213 6.565 2.235-6.565c.239-.735.79-1.102 1.655-1.102h1.497c.432 0 .79.097 1.073.292.298.195.507.532.626 1.012l2.593 9.916h-3.554l-1.744-7.195L67.1 21.07c-.268.735-.812 1.102-1.632 1.102h-1.23c-.834 0-1.37-.367-1.609-1.102l-2.123-6.228-1.744 7.33h-3.577l2.616-9.916c.119-.48.32-.817.603-1.012.283-.195.641-.292 1.073-.292h1.498zm17.86 11.22c-1.177 0-2.056-.307-2.637-.922s-.872-1.41-.872-2.384c0-.989.29-1.79.872-2.405.58-.615 1.46-.922 2.637-.922h4.158v2.18h-3.308c-.552 0-.827.263-.827.788 0 .524.26.787.782.787h4.448v-3.238c0-1.274-.648-1.911-1.944-1.911h-6.215v-3.193h6.26c1.862 0 3.256.465 4.18 1.394.923.914 1.385 2.233 1.385 3.957v5.869h-8.919zm12.621-4.497v-2.339h4.761c.567 0 .85-.27.85-.81 0-.494-.283-.741-.85-.741h-6.55v-2.833h7.199c.67 0 1.244.075 1.72.225.478.15.865.36 1.163.63a2.4 2.4 0 01.649.944c.149.36.223.75.223 1.169 0 .57-.119 1.064-.358 1.484a1.94 1.94 0 01-1.006.854c.477.135.872.427 1.185.877.328.45.492 1.035.492 1.754 0 1.004-.358 1.806-1.073 2.406-.7.585-1.729.877-3.085.877h-7.108v-2.856h6.75c.582 0 .872-.27.872-.81 0-.554-.29-.831-.871-.831h-4.963z" fill="#fff"/></svg>