<svg width="170" height="70" fill="none" xmlns="http://www.w3.org/2000/svg"><path d="M74.713 0h-60.97L0 22.998 44.478 70l44.228-47.002L74.713 0z" fill="#fff"/><path d="M90.704 0h-60.97L15.991 22.998 60.47 70l44.228-47.002L90.704 0z" fill="#D1D1D1"/><path d="M74.712 0H29.734L15.991 22.998 52.348 61.58l36.357-38.582L74.712 0z" fill="#005377"/><path d="M102.689 49.708l-3.875-8.358h-1.598l-3.876 8.358h-2.077v3.215h.959c.426 0 .639-.214.639-.643v-1.286h10.307v1.286c0 .429.213.643.639.643h.959v-3.215h-2.077zm-7.764 0l3.09-6.657 3.089 6.657h-6.179zm19.026-8.358l-6.392 7.648v-7.005c0-.43-.213-.643-.639-.643h-.959v9.644h1.598l6.392-7.648v7.005c0 .429.213.643.639.643h.959V41.35h-1.598zm11.803 8.358h-4.794c-1.385 0-2.077-.696-2.077-2.09v-2.893c0-1.393.692-2.09 2.077-2.09h4.635c.426 0 .639-.214.639-.642v-.643h-5.593c-2.237 0-3.356 1.125-3.356 3.375v2.894c0 2.25 1.119 3.375 3.356 3.375h5.753v-.643c0-.428-.213-.643-.64-.643zm1.376-8.358v.643c0 .428.213.643.639.643h3.516v8.358h1.598v-8.358h3.516c.426 0 .639-.215.639-.643v-.643h-9.908zm17.661 0h-6.552v9.644h.959c.426 0 .639-.214.639-.643v-3.536h4.954c1.811 0 2.716-.911 2.716-2.733s-.905-2.732-2.716-2.732zm-.32 4.179h-4.634v-2.893h4.634c.959 0 1.438.482 1.438 1.446 0 .965-.479 1.447-1.438 1.447zm10.85-4.179h-3.196c-2.237 0-3.356 1.125-3.356 3.375v2.894c0 2.25 1.119 3.375 3.356 3.375h3.196c2.238 0 3.356-1.125 3.356-3.375v-2.894c0-2.25-1.118-3.375-3.356-3.375zm1.758 6.269c0 1.393-.692 2.09-2.077 2.09h-2.557c-1.385 0-2.077-.697-2.077-2.09v-2.894c0-1.393.692-2.09 2.077-2.09h2.557c1.385 0 2.077.697 2.077 2.09v2.894zm7.488-7.234h1.278c1.066 0 1.598-.536 1.598-1.607v-.643h-.959c-.266 0-.399.134-.399.402v.24c0 .376-.187.563-.559.563h-.64c-.373 0-.559-.187-.559-.562v-.241c0-.268-.133-.402-.399-.402h-.959v.643c0 1.071.532 1.607 1.598 1.607zm3.835.965l-6.392 7.648v-7.005c0-.43-.213-.643-.639-.643h-.959v9.644h1.598l6.392-7.648v7.005c0 .429.213.643.639.643H170V41.35h-1.598zM59.526 37.32l-2.032-3.784H46.02l2.784-5.26h5.907l-4.176-7.91-8.955 16.955h-7.262L46.81 14.537c.677-1.21 1.655-1.816 2.934-1.816h1.505c1.28 0 2.258.605 2.935 1.816l12.492 22.784h-7.15zm8.272 0v-5.525h1.919c.426 0 .778-.126 1.053-.378.276-.278.464-.732.565-1.363l1.73-11.619h17.571v18.886h-6.283V23.999h-6.697l-1.204 7.266c-.352 2.07-1.016 3.596-1.994 4.58-.954.984-2.32 1.476-4.102 1.476h-2.558zm34.832-18.885c1.455 0 2.383.619 2.784 1.855l3.725 11.05 3.763-11.05c.401-1.236 1.329-1.855 2.784-1.855h2.521c.727 0 1.329.164 1.806.492.501.328.853.896 1.053 1.704l4.365 16.69h-5.983l-2.934-12.111-3.575 10.256c-.451 1.236-1.367 1.855-2.746 1.855h-2.07c-1.404 0-2.307-.619-2.709-1.855l-3.574-10.483-2.935 12.338h-6.02l4.402-16.69c.201-.808.54-1.376 1.016-1.704.477-.328 1.079-.492 1.806-.492h2.521zm30.062 18.885c-1.981 0-3.461-.517-4.439-1.551-.979-1.035-1.468-2.372-1.468-4.012 0-1.665.489-3.015 1.468-4.05.978-1.034 2.458-1.551 4.439-1.551h6.998v3.671h-5.568c-.928 0-1.392.442-1.392 1.325s.439 1.324 1.317 1.324h7.487v-5.45c0-2.144-1.091-3.216-3.273-3.216h-10.46v-5.375h10.535c3.135 0 5.481.783 7.036 2.347 1.555 1.539 2.332 3.76 2.332 6.66v9.879h-15.012zm21.243-7.569v-3.936h8.014c.953 0 1.43-.454 1.43-1.362 0-.833-.477-1.249-1.43-1.249h-11.024v-4.769h12.115c1.129 0 2.095.127 2.897.379.803.252 1.455.605 1.957 1.06a4.01 4.01 0 011.091 1.59 5.08 5.08 0 01.376 1.967c0 .959-.2 1.791-.602 2.498a3.264 3.264 0 01-1.693 1.438c.803.227 1.467.72 1.994 1.476.552.757.828 1.741.828 2.952 0 1.69-.602 3.04-1.806 4.05-1.179.984-2.91 1.476-5.192 1.476h-11.965v-4.807h11.363c.978 0 1.467-.454 1.467-1.362 0-.934-.489-1.4-1.467-1.4h-8.353z" fill="#fff"/></svg>